<?xml version="1.0" encoding="UTF-8"?><svg id="Logos" xmlns="http://www.w3.org/2000/svg" viewBox="0 0 95.45143 102.06821"><defs><style>.cls-1{fill:#5ce500;}</style></defs><path class="cls-1" d="M95.45217,28.99461h0l-.00172,50.96503c0,1.12858-.79826,2.5112-1.77602,3.07321l-1.66592,.96514-12.69997,7.33004-8.57847,4.95302-1.77488,1.02536V42.24051L21.27153,14.70959,43.9217,1.63628h.00115l2.07078-1.19567c.9749-.56314,2.57601-.56314,3.55205,0l31.42018,18.13986,14.48631,8.36457v2.04957Zm-37.10322,19.36134l-9.77931-5.64864-22.87783-13.2092c-.97604-.56601-2.57199-.56601-3.54975,0L1.84882,41.21401h-.00229l-1.77315,1.02535,34.44177,19.8855,.00402,39.7704,20.27429-11.70845,1.77947-1.03052c.97775-.56429,1.77832-1.94692,1.77832-3.07607l-.00229-35.67357v-2.05072ZM.07337,82.00977l23.83036,13.7649v-27.53609L.07337,82.00977Z"/></svg>